REM MD5 64f77ef467b47713d2749e664706d267
FILE "Koiyohou (Japan).bin" BINARY
  TRACK 01 MODE2/2352
    INDEX 01 00:00:00
  TRACK 02 AUDIO
    INDEX 00 31:50:34
    INDEX 01 31:52:34
  TRACK 03 AUDIO
    INDEX 00 33:34:11
    INDEX 01 33:36:11
REM LEADOUT 36:41:12
